<svg width="146" height="21" viewBox="0 0 146 21" fill="none" xmlns="http://www.w3.org/2000/svg">
<path d="M29.6921 0.205811C26.7413 0.205811 24.0882 1.53062 22.2756 3.62525C23.7379 5.31706 24.6486 7.51016 24.7361 9.92704C24.9375 7.30428 27.0828 5.2365 29.6921 5.2365C32.4328 5.2365 34.6656 7.51911 34.6656 10.3209H39.5865C39.5865 4.73522 35.1559 0.205811 29.6921 0.205811Z" fill="#383938"/>
<path d="M9.88571 10.6699C9.8069 13.1047 8.89626 15.3157 7.42523 17.0254C9.23775 19.129 11.8909 20.4538 14.8504 20.4538V15.4231C12.2148 15.4231 10.0608 13.3195 9.88571 10.6699Z" fill="#383938"/>
<path d="M0 0.214844V5.24553C2.60933 5.24553 4.75459 7.31331 4.95598 9.93607C5.04354 7.51919 5.95418 5.3261 7.4077 3.63428C5.59518 1.53965 2.95082 0.214844 0 0.214844Z" fill="#383938"/>
<path d="M34.6743 19.0663V20.4359H39.5953V10.3208C39.5865 14.0535 37.6076 17.3118 34.6743 19.0663Z" fill="#383938"/>
<path d="M39.5603 11.1266C39.5603 11.0729 39.569 11.0192 39.569 10.9655C39.5778 10.7775 39.5865 10.5806 39.5865 10.3836V10.3568C39.5865 10.3478 39.5865 10.3299 39.5865 10.321V10.2852C39.5603 4.7174 35.1384 0.214843 29.6921 0.214843V5.24553C32.4328 5.24553 34.6656 7.52814 34.6656 10.3299C34.6656 13.1317 32.4328 15.4143 29.6921 15.4143C26.9514 15.4143 24.7186 13.1317 24.7186 10.3299C24.7186 10.321 24.7186 10.321 24.7186 10.312C24.7186 10.1867 24.7274 10.0614 24.7361 9.92712C24.6486 7.51919 23.7379 5.31714 22.2756 3.62533C20.4631 1.52175 17.81 0.187988 14.8504 0.187988C11.8821 0.187988 9.22898 1.52175 7.41646 3.63428C5.96294 5.3261 5.0523 7.52814 4.96474 9.93607C4.97349 10.0703 4.98225 10.1957 4.98225 10.3299C4.98225 10.4463 4.97349 10.5627 4.96474 10.679C4.78086 13.3287 2.62684 15.4233 0 15.4233V20.454C2.95958 20.454 5.61269 19.1292 7.42521 17.0256C8.89624 15.3248 9.81564 13.1049 9.88569 10.6701C9.87693 10.5627 9.86818 10.4463 9.86818 10.3389C9.86818 10.2225 9.87693 10.1151 9.88569 10.0077C10.0521 7.35807 12.2148 5.25448 14.8504 5.25448V5.21868C17.4685 5.21868 19.6138 7.29541 19.8064 9.91817C19.7976 10.0524 19.7976 10.1867 19.7976 10.321C19.7976 15.9067 24.2283 20.4361 29.6921 20.4361V20.454C34.6831 20.454 38.816 16.6675 39.4902 11.7532C39.499 11.7084 39.499 11.6637 39.5077 11.6189C39.5252 11.4578 39.5428 11.2967 39.5603 11.1266Z" fill="#383938"/>
<path d="M59.6556 8.14572V12.4603H50.0238V16.2199H60.3736V20.5076H44.919V0.528076H60.1197V4.8337H50.0238V8.14572H59.6556Z" fill="#383938"/>
<path d="M70.3468 16.0319L67.8601 20.4987H62.046L67.4923 11.4935L70.3468 16.0319ZM68.3855 10.5984L62.0548 0.528076H67.6675L71.2225 6.11375L74.8037 0.528076H80.4164L74.0945 10.6074L80.4164 20.5076H74.6023L71.2225 15.1457" fill="#383938"/>
<path d="M82.2114 10.4731C82.2114 8.95141 82.4829 7.54604 83.0345 6.26598C83.5861 4.97698 84.3304 3.87596 85.2936 2.94501C86.248 2.01407 87.3776 1.29795 88.691 0.778772C89.9869 0.259591 91.4141 0 92.9465 0C94.4963 0 95.9323 0.259591 97.237 0.778772C98.5416 1.29795 99.6799 2.02302 100.634 2.94501C101.589 3.87596 102.333 4.97698 102.867 6.26598C103.401 7.55499 103.664 8.96036 103.664 10.4731C103.664 12.0128 103.401 13.4182 102.867 14.7072C102.333 15.9962 101.589 17.1061 100.634 18.0371C99.6799 18.977 98.5504 19.702 97.237 20.2212C95.9323 20.7404 94.4963 21 92.9465 21C91.4141 21 89.9869 20.7404 88.6822 20.2212C87.3776 19.702 86.2393 18.977 85.2848 18.0371C84.3304 17.1061 83.5774 15.9872 83.0257 14.7072C82.4741 13.4271 82.2114 12.0128 82.2114 10.4731ZM87.3075 10.4731C87.3075 11.3951 87.4388 12.2276 87.7103 12.9885C87.9817 13.7494 88.3582 14.4028 88.8486 14.9578C89.3389 15.5128 89.9343 15.9425 90.6261 16.2468C91.3178 16.5601 92.0971 16.7123 92.9465 16.7123C93.7958 16.7123 94.5664 16.5601 95.2668 16.2468C95.9586 15.9425 96.554 15.5038 97.0443 14.9578C97.5347 14.4118 97.9112 13.7494 98.1826 12.9885C98.4541 12.2276 98.5854 11.3862 98.5854 10.4731C98.5854 9.58696 98.4541 8.77238 98.1826 8.02046C97.9112 7.26854 97.5347 6.61509 97.0443 6.06905C96.554 5.51407 95.9586 5.0844 95.2668 4.78005C94.5751 4.46675 93.7958 4.31458 92.9465 4.31458C92.0971 4.31458 91.3266 4.46675 90.6261 4.78005C89.9343 5.09335 89.3389 5.52302 88.8486 6.06905C88.3582 6.62404 87.9817 7.26854 87.7103 8.02046C87.4476 8.77238 87.3075 9.58696 87.3075 10.4731Z" fill="#383938"/>
<path d="M111.702 8.17258V20.4987H106.606V0.528076H111.702V8.17258ZM112.578 1.42322L119.031 12.6304V0.528076H124.127V20.4987H119.031L112.578 9.05877V1.42322Z" fill="#383938"/>
<path d="M136.176 6.29278L131.447 20.5076H126.351L132.971 0.528076H139.398L146.017 20.5076H140.921L136.176 6.29278ZM144.293 13.1227L133.593 16.6943L135.16 11.959L145.597 8.2979L144.293 13.1227Z" fill="#383938"/>
</svg>
